<svg id="Layer_1" data-name="Layer 1" xmlns="http://www.w3.org/2000/svg" viewBox="0 0 555 115"><defs><style>.cls-1{fill:#fff;}</style></defs><title>Hustle</title><path class="cls-1" d="M98,12.69v94.49H53.48V74.92h-4v32.26H4.88V12.69H49.43V45.76h4V12.69Z"/><path class="cls-1" d="M148,109.21c-30.51,0-44.55-14.45-44.55-45.5v-51H148ZM152,12.69h44.55v51c0,31.05-14,45.5-44.55,45.5Z"/><path class="cls-1" d="M213.59,70.87C188.34,43.6,200.22,12.69,236,12.69h4.59L274.2,49c25.92,27.94,13.77,58.18-22.27,58.18H247.2Zm27.81,36.31H201.84V64.25Zm5-94.49h37.53V53.18Z"/><path class="cls-1" d="M381,41.85H288.65V12.69H381Zm-23.9,4v61.28H312.54V45.9Z"/><path class="cls-1" d="M385.71,12.69h44.55V74H385.71Zm0,65.33h77.36v29.16H385.71Z"/><path class="cls-1" d="M512.34,12.69v94.49H467.79V12.69Zm38.2,0V41.85H516.39V12.69Zm-2.7,33.21V74H516.39V45.9ZM550.54,78v29.16H516.39V78Z"/></svg>