<?xml version="1.0" encoding="utf-8"?>
<!-- Generator: Adobe Illustrator 22.1.0, SVG Export Plug-In . SVG Version: 6.00 Build 0)  -->
<svg version="1.1" xmlns="http://www.w3.org/2000/svg" xmlns:xlink="http://www.w3.org/1999/xlink" x="0px" y="0px"
	 viewBox="0 0 640 480" style="enable-background:new 0 0 640 480;" xml:space="preserve">
<style type="text/css">
	.st0{fill:#6ED1DE;stroke:#0071BC;stroke-width:5;stroke-miterlimit:10;}
	.st1{fill:#F8CF25;stroke:#231F20;stroke-width:5;stroke-miterlimit:10;}
	.st2{fill:#E6E7E8;stroke:#231F20;stroke-width:5;stroke-miterlimit:10;}
	.st3{fill:#29ABE2;stroke:#231F20;stroke-width:5;stroke-miterlimit:10;}
</style>
<g id="Layer_2">
	<circle class="st0" cx="271" cy="225" r="147.5"/>
</g>
<g id="Layer_1">
	<circle class="st1" cx="215.6" cy="182.4" r="42.9"/>
	<path class="st2" d="M389,245.1c0-15.1-10.7-27.7-25-30.6c2.3-3.5,3.7-7.8,3.7-12.3c0-12.4-10.1-22.5-22.5-22.5
		c-1.8,0-3.5,0.2-5.2,0.6c-9.8-23.1-32.8-39.4-59.5-39.4c-34.7,0-62.9,27.3-64.5,61.6c-18.8,1.8-33.5,17.6-33.5,36.9
		c0,19.3,14.7,35.1,33.5,36.9v0.3H360v-0.3C376.2,275.1,389,261.6,389,245.1z"/>
	<line class="st3" x1="237.8" y1="276.5" x2="198.4" y2="328.8"/>
	<line class="st3" x1="275.3" y1="276.5" x2="258.5" y2="298.4"/>
	<line class="st3" x1="254" y1="304.9" x2="241.7" y2="320.4"/>
	<line class="st3" x1="318" y1="276.5" x2="270.1" y2="339.8"/>
	<line class="st3" x1="356.7" y1="277.8" x2="323.1" y2="322.3"/>
</g>
</svg>
